{"title":"Taken.2.2012.DVDRIP.XVID.AC3.5.1-HS","uid":7937501,"size":1455417665,"categoryP":"video","categoryS":"movies","magnet":"?xt=urn:btih:f9b1aa6708b99e68fab9c33a52b4a4f25ee7265e&amp;dn=Taken.2.2012.DVDRIP.XVID.AC3.5.1-HS&amp;tr=udp%3A%2F%2Ftracker.openbittorrent.com%3A80&amp;tr=udp%3A%2F%2Fopen.demonii.com%3A1337&amp;tr=udp%3A%2F%2Ftracker.coppersurfer.tk%3A6969&amp;tr=udp%3A%2F%2Fexodus.desync.com%3A6969","seeders":8,"leechers":1,"uploader":"Acesn8s","files":-1,"time":1355899703,"description":"SILVERTORRENT Clean Verified Torrents Download\n                                   &lt;a href=&quot;\nhttp://silvertorrent.org/&quot; rel=&quot;nofollow&quot; target=&quot;_NEW&quot;&gt;\nhttp://silvertorrent.org/&lt;/a&gt; __________________ http://silvertorrent.org/\n\n------------------------------------------------------------------------\n\n\nPoster: http://wickedchannel.com/wp-content/uploads/2012/11/654.png\nName: Taken.2.2012.DVDRIP.XVID.AC3.5.1-HS torrent\n &lt;a href=&quot;\nhttp://www.imdb.com/title/tt1397280/&quot; rel=&quot;nofollow&quot; target=&quot;_NEW&quot;&gt;\nhttp://www.imdb.com/title/tt1397280/&lt;/a&gt;\n\nSource -- retail ( HS )\n\nFile size                                : 1.36 GiB\nDuration                                 : 1h 32mn\nOverall bit rate                         : 2 095 Kbps\n\nVideo\nID                                       : 0\n\nCodec ID                                 : XVID\nCodec ID/Hint                            : XviD\nDuration                                 : 1h 32mn\nBit rate                                 : 1 704 Kbps\nWidth                                    : 720 pixels\nHeight                                   : 304 pixels\nDisplay aspect ratio                     : 2.35:1\nFrame rate                               : 23.976 fps\nColor space                              : YUV\nChroma subsampling                       : 4:2:0\nBit depth                                : 8 bits\nScan type                                : Progressive\nCompression mode                         : Lossy\nBits/(Pixel*Frame)                       : 0.325\nStream size                              : 1.10 GiB (81%)\nWriting library                          : XviD 64\n\nAudio\nID                                       : 1\nFormat                                   : AC-3\nFormat/Info                              : Audio Coding 3\nMode extension                           : CM (complete main)\nFormat settings, Endianness              : Big\nCodec ID                                 : 2000\nDuration                                 : 1h 32mn\nBit rate mode                            : Constant\nBit rate                                 : 384 Kbps\nChannel(s)                               : 6 channels\nChannel positions                        : Front: L C R, Side: L R, LFE\nSampling rate                            : 44.1 KHz\nBit depth                                : 16 bits\nCompression mode                         : Lossy\nStream size                              : 253 MiB (18%)\n\nGenre:\tAction, Crime, Drama\n \nActors:\tLiam Neeson, Famke Janssen, Maggie Grace\n\nPlot: In Istanbul, retired CIA operative Bryan Mills and his wife are taken hostage by the father of a kidnapper Mills killed while rescuing his daughter. \n\nScreens: \n &lt;a href=&quot;\nhttp://silvertorrent.org/index.php?page=torrent-details&amp;id=f9b1aa6708b99e68fab9c33a52b4a4f25ee7265e&quot; rel=&quot;nofollow&quot; target=&quot;_NEW&quot;&gt;\nhttp://silvertorrent.org/index.php?page=torrent-details&amp;id=f9b1aa6708b99e68fab9c33a52b4a4f25ee7265e&lt;/a&gt;","torrent":{"xt":"urn:btih:f9b1aa6708b99e68fab9c33a52b4a4f25ee7265e","amp;dn":"Taken.2.2012.DVDRIP.XVID.AC3.5.1-HS","amp;tr":["udp%3A%2F%2Ftracker.openbittorrent.com%3A80","udp%3A%2F%2Fopen.demonii.com%3A1337","udp%3A%2F%2Ftracker.coppersurfer.tk%3A6969","udp%3A%2F%2Fexodus.desync.com%3A6969"],"infoHash":"f9b1aa6708b99e68fab9c33a52b4a4f25ee7265e","infoHashBuffer":{"type":"Buffer","data":[249,177,170,103,8,185,158,104,250,185,195,58,82,180,164,242,94,231,38,94]},"announce":[],"urlList":[]}}